<svg xmlns="http://www.w3.org/2000/svg" width="518" height="120" fill="none" xmlns:v="https://vecta.io/nano"><path d="M0 27.662c0-7.773 8.48-12.574 15.145-8.575L40.29 34.174A20 20 0 0 1 50 51.324v17.352a20 20 0 0 1-9.71 17.15l-25.145 15.087C8.48 104.912 0 100.111 0 92.338V27.662z" fill="#fa776c"/><path d="M103.855 0c5.296 0 7.995 6.362 4.314 10.17L94.896 23.9a20 20 0 0 1-14.38 6.1H55.54a20 20 0 0 1-10.29-2.85L18.575 11.145C13.357 8.014 15.577 0 21.662 0h82.193zm0 120c5.296 0 7.995-6.362 4.314-10.17L94.896 96.1a20 20 0 0 0-14.38-6.1H55.54a20 20 0 0 0-10.29 2.85l-26.675 16.005C13.357 111.986 15.577 120 21.662 120h82.193z" fill="#624cf5"/><rect x="56" y="45" width="30" height="30" rx="15" fill="#fa776c"/><path d="M164.272 52.872h32.352v12.096h-32.352V52.872zm1.152 27.648H202V93h-52.032V25.8h50.784v12.48h-35.328v42.24zM226.866 93l-21.697-51.648h15.457L238.674 85.8h-7.68l18.72-44.448h14.4L242.322 93h-15.456zm67.584.768c-5.888 0-11.072-1.152-15.552-3.456-4.416-2.304-7.84-5.44-10.272-9.408-2.432-4.032-3.648-8.608-3.648-13.728 0-5.184 1.184-9.76 3.552-13.728 2.432-4.032 5.728-7.168 9.888-9.408 4.16-2.304 8.864-3.456 14.112-3.456 5.056 0 9.6 1.088 13.632 3.264 4.096 2.112 7.328 5.184 9.696 9.216 2.368 3.968 3.552 8.736 3.552 14.304a24.66 24.66 0 0 1-.096 2.016l-.192 2.016H277.17v-8.736h34.08l-5.76 2.592c0-2.688-.544-5.024-1.632-7.008s-2.592-3.52-4.512-4.608c-1.92-1.152-4.16-1.728-6.72-1.728s-4.832.576-6.816 1.728c-1.92 1.088-3.424 2.656-4.512 4.704-1.088 1.984-1.632 4.352-1.632 7.104v2.304c0 2.816.608 5.312 1.824 7.488 1.28 2.112 3.04 3.744 5.28 4.896 2.304 1.088 4.992 1.632 8.064 1.632 2.752 0 5.152-.416 7.2-1.248 2.112-.832 4.032-2.08 5.76-3.744l7.968 8.64c-2.368 2.688-5.344 4.768-8.928 6.24-3.584 1.408-7.712 2.112-12.384 2.112zm66.323-53.184c4.096 0 7.744.832 10.944 2.496 3.264 1.6 5.824 4.096 7.68 7.488 1.856 3.328 2.784 7.616 2.784 12.864V93h-14.976V65.736c0-4.16-.928-7.232-2.784-9.216-1.792-1.984-4.352-2.976-7.68-2.976-2.368 0-4.512.512-6.432 1.536-1.856.96-3.328 2.464-4.416 4.512-1.024 2.048-1.536 4.672-1.536 7.872V93h-14.976V41.352h14.304v14.304l-2.688-4.32c1.856-3.456 4.512-6.112 7.968-7.968s7.392-2.784 11.808-2.784zm56.103 53.184c-6.08 0-10.816-1.536-14.208-4.608-3.392-3.136-5.088-7.776-5.088-13.92V29.928h14.976v45.12c0 2.176.576 3.872 1.728 5.088 1.152 1.152 2.72 1.728 4.704 1.728 2.368 0 4.384-.64 6.048-1.92l4.032 10.56c-1.536 1.088-3.392 1.92-5.568 2.496-2.112.512-4.32.768-6.624.768zm-27.264-39.744v-11.52h35.808v11.52h-35.808zM437.475 93V21.768h14.976V93h-14.976zm35.403 19.392c-2.688 0-5.344-.416-7.968-1.248s-4.768-1.984-6.433-3.456l5.473-10.656c1.152 1.024 2.464 1.824 3.936 2.4 1.536.576 3.04.864 4.512.864 2.112 0 3.776-.512 4.992-1.536 1.28-.96 2.432-2.592 3.456-4.896l2.688-6.336 1.152-1.632 18.528-44.544h14.4l-23.328 54.816c-1.664 4.16-3.584 7.424-5.76 9.792-2.112 2.368-4.48 4.032-7.104 4.992-2.56.96-5.408 1.44-8.544 1.44zm8.832-17.376l-23.041-53.664h15.457l17.856 43.2-10.272 10.464z" fill="#000"/></svg>